<?xml version="1.0" encoding="UTF-8" standalone="no"?>
<svg width="122px" height="124px" viewBox="0 0 122 124" version="1.1" xmlns="http://www.w3.org/2000/svg" xmlns:xlink="http://www.w3.org/1999/xlink" xmlns:sketch="http://www.bohemiancoding.com/sketch/ns">
    <!-- Generator: Sketch 3.5.2 (25235) - http://www.bohemiancoding.com/sketch -->
    <title>Slice 1</title>
    <desc>Created with Sketch.</desc>
    <defs></defs>
    <g id="Page-1" stroke="none" stroke-width="1" fill="none" fill-rule="evenodd" sketch:type="MSPage">
        <g id="layer1" sketch:type="MSLayerGroup" transform="translate(5.000000, 4.000000)" stroke="#FFFFFF" fill="#FFFFFF">
            <path d="M20.233,73.19 L43.521,95.74 C73.457,70.648 111.54,48.794 113.62,0.045 C64.963,3.6947 43.381,41.798 20.233,73.191 L20.233,73.19 Z" id="path3297" stroke-width="6" sketch:type="MSShapeGroup"></path>
            <g id="Group" transform="translate(58.000000, 12.000000)" stroke-width="3.61" sketch:type="MSShapeGroup">
                <path d="M40.79,13.143 C39.0360608,14.9966372 36.4377722,15.7629162 33.9738844,15.1531872 C31.5099967,14.5434582 29.5548329,12.6503534 28.8448844,10.1869872 C28.1349359,7.72362098 28.7780608,5.0642372 30.532,3.2106 C33.2433552,0.345125164 37.7376743,0.245642317 40.5703428,2.98839884 C43.4030113,5.73115537 43.5013552,10.2775252 40.79,13.143 L40.79,13.143 Z" id="path3301"></path>
                <path d="M26.621,27.778 C24.8670608,29.6316372 22.2687722,30.3979163 19.8048844,29.7881873 C17.3409966,29.1784583 15.3858328,27.2853535 14.6758843,24.8219873 C13.9659359,22.358621 14.6090607,19.6992372 16.363,17.8456 C18.1169392,15.9919628 20.7152278,15.2256837 23.1791156,15.8354127 C25.6430034,16.4451417 27.5981672,18.3382465 28.3081157,20.8016127 C29.0180641,23.264979 28.3749393,25.9243628 26.621,27.778 L26.621,27.778 Z" id="path3303"></path>
                <path d="M12.256,42.613 C9.54464485,45.4784748 5.0503257,45.5779577 2.21765721,42.8352012 C-0.615011269,40.0924446 -0.713355153,35.5460748 1.998,32.6806 C3.75193923,30.8269627 6.35022785,30.0606836 8.81411565,30.6704126 C11.2780034,31.2801416 13.2331672,33.1732464 13.9431157,35.6366127 C14.6530642,38.099979 14.0099393,40.7593628 12.256,42.613 L12.256,42.613 Z" id="path3305"></path>
            </g>
            <g id="Group" transform="translate(0.000000, 43.000000)" stroke-width="6" sketch:type="MSShapeGroup">
                <path d="M20.233,30.19 L0.46,37.048 C4.7365,24.369 11.504,7.978 20.636,2.378 C26.6362,-1.3012 40.961,1.43986 40.961,1.43986 L20.233,30.18986 L20.233,30.19 Z" id="path3307"></path>
                <path d="M44.231,52.01 L38.0137,71.994 C50.5487,67.3112 66.7127,60.019 72.0157,50.711 C75.4996,44.5953 72.29851,30.367 72.29851,30.367 L44.23151,52.01 L44.231,52.01 Z" id="path3309"></path>
            </g>
        </g>
    </g>
</svg>